<svg width="19" height="22" viewBox="0 0 19 22" fill="none" xmlns="http://www.w3.org/2000/svg">
<path d="M17.6801 7.85834L17.2811 18.5833C17.2471 19.5018 16.8113 20.3724 16.0663 21.0103C15.3212 21.6482 14.3255 22.0032 13.2905 22H5.70848C4.67415 22.0033 3.67904 21.6488 2.9341 21.0116C2.18915 20.3744 1.75294 19.5047 1.71793 18.5868L1.31888 7.85834C1.31014 7.6234 1.40688 7.395 1.5878 7.22339C1.76872 7.05178 2.019 6.95102 2.28359 6.94326C2.54818 6.93551 2.8054 7.02141 2.99867 7.18205C3.19194 7.3427 3.30542 7.56494 3.31415 7.79988L3.71321 18.5275C3.73308 18.9854 3.95203 19.4187 4.32409 19.7364C4.69614 20.054 5.19234 20.2313 5.70848 20.2309H13.2905C13.8073 20.2313 14.3041 20.0535 14.6763 19.7351C15.0484 19.4167 15.2669 18.9825 15.2858 18.5239L15.6849 7.79988C15.6936 7.56494 15.8071 7.3427 16.0003 7.18205C16.1936 7.02141 16.4508 6.93551 16.7154 6.94326C16.98 6.95102 17.2303 7.05178 17.4112 7.22339C17.5921 7.395 17.6889 7.6234 17.6801 7.85834ZM19 4.28927C19 4.52421 18.8949 4.74953 18.7078 4.91566C18.5207 5.08179 18.267 5.17512 18.0024 5.17512H0.997637C0.733047 5.17512 0.479294 5.08179 0.292201 4.91566C0.105108 4.74953 0 4.52421 0 4.28927C0 4.05433 0.105108 3.82901 0.292201 3.66288C0.479294 3.49676 0.733047 3.40343 0.997637 3.40343H4.09031C4.40641 3.40418 4.71152 3.30048 4.94626 3.11251C5.18101 2.92454 5.3286 2.66574 5.3603 2.38648C5.43392 1.73138 5.77957 1.12409 6.3299 0.682914C6.88023 0.241742 7.59583 -0.00170376 8.33725 8.97617e-06H10.6617C11.4032 -0.00170376 12.1188 0.241742 12.6691 0.682914C13.2194 1.12409 13.5651 1.73138 13.6387 2.38648C13.6704 2.66574 13.818 2.92454 14.0527 3.11251C14.2875 3.30048 14.5926 3.40418 14.9087 3.40343H18.0014C18.266 3.40343 18.5197 3.49676 18.7068 3.66288C18.8939 3.82901 18.999 4.05433 18.999 4.28927H19ZM7.0922 3.40343H11.9088C11.7777 3.13744 11.692 2.85561 11.6544 2.56719C11.6297 2.34883 11.5146 2.1464 11.3314 1.99911C11.1482 1.85181 10.9099 1.77014 10.6627 1.76993H8.33825C8.0911 1.77014 7.85284 1.85181 7.66964 1.99911C7.48643 2.1464 7.37131 2.34883 7.3466 2.56719C7.30872 2.85565 7.22364 3.13749 7.0922 3.40343ZM8.09682 16.8249V9.2819C8.09682 9.04696 7.99171 8.82164 7.80462 8.65551C7.61753 8.48938 7.36378 8.39605 7.09919 8.39605C6.8346 8.39605 6.58084 8.48938 6.39375 8.65551C6.20666 8.82164 6.10155 9.04696 6.10155 9.2819V16.8284C6.10155 17.0634 6.20666 17.2887 6.39375 17.4548C6.58084 17.6209 6.8346 17.7143 7.09919 17.7143C7.36378 17.7143 7.61753 17.6209 7.80462 17.4548C7.99171 17.2887 8.09682 17.0634 8.09682 16.8284V16.8249ZM12.8994 16.8249V9.2819C12.8994 9.04696 12.7943 8.82164 12.6072 8.65551C12.4202 8.48938 12.1664 8.39605 11.9018 8.39605C11.6372 8.39605 11.3835 8.48938 11.1964 8.65551C11.0093 8.82164 10.9042 9.04696 10.9042 9.2819V16.8284C10.9042 17.0634 11.0093 17.2887 11.1964 17.4548C11.3835 17.6209 11.6372 17.7143 11.9018 17.7143C12.1664 17.7143 12.4202 17.6209 12.6072 17.4548C12.7943 17.2887 12.8994 17.0634 12.8994 16.8284V16.8249Z" fill="#06004F"/>
</svg>
